<svg width="154" height="56" viewBox="0 0 154 56" fill="none" xmlns="http://www.w3.org/2000/svg">
<path fill-rule="evenodd" clip-rule="evenodd" d="M4.65999 4.5973C4.25377 6.69678 1.83887 15.214 1.83887 16.0531C2.65247 16.0531 22.126 20.5602 24.5621 20.5602C28.8714 8.22024 25.0825 8.5734 25.0825 8.5734C24.6774 8.5734 20.7448 10.8202 17.6576 10.0567C12.7583 8.84375 8.60437 3.07506 7.50465 2.91553C7.09609 2.91553 5.47241 2.91553 4.65999 4.5973Z" fill="#FCC90B"/>
<path fill-rule="evenodd" clip-rule="evenodd" d="M0.829584 26.4452C0.829584 26.4452 -0.892994 28.1136 0.691825 31.4759L6.41413 34.8699C6.41413 34.8699 7.4797 34.5825 8.83845 33.8993C6.45652 25.7608 1.26759 26.3855 0.829584 26.4452Z" fill="#ABC718"/>
<mask id="mask0" mask-type="alpha" maskUnits="userSpaceOnUse" x="0" y="0" width="29" height="22">
<path d="M28.1744 0.496826H0.448242V21.991H28.1744V0.496826Z" fill="white"/>
</mask>
<g mask="url(#mask0)">
<path fill-rule="evenodd" clip-rule="evenodd" d="M8.08884 6.5097C7.97817 5.92516 8.49859 6.42324 8.76704 6.74108C10.2106 8.51541 11.6541 10.4334 13.5957 11.4588C14.0631 11.6987 14.7001 12.2224 16.2107 12.3539C18.3278 12.5354 20.2846 11.6719 21.2631 11.2445C21.7188 11.0436 23.0481 10.414 24.1619 9.69911C25.2228 9.02201 26.0752 8.25846 26.1871 8.14398C26.5462 7.7689 26.7746 6.93106 27.2692 6.7898C27.6754 6.65097 27.925 6.91401 28.0616 7.14296C28.1993 7.42792 28.1722 7.81762 28.1722 8.14398C28.1722 8.42408 27.9109 12.1043 27.4752 13.9784C26.9901 16.0706 26.4049 18.1859 26.0964 19.8604C25.9151 20.652 25.8704 21.8198 24.9685 21.9599C24.0206 22.1462 22.6654 21.4447 21.674 21.1646C13.0953 19.0615 7.05153 18.8788 6.1037 18.74C5.15587 18.645 3.71116 18.5525 2.99058 18.3199C2.26764 18.1336 1.31981 17.6184 0.868851 16.9645C0.462638 16.4031 0.416718 15.4252 0.462638 14.7249C0.462638 14.3511 1.13966 11.1775 1.23032 10.7099C1.45521 9.82576 1.63653 8.88806 1.90617 7.95644C2.26764 6.69603 3.89249 2.68218 4.02907 2.26447C4.1633 1.79684 4.1633 1.00284 4.65899 0.722744C5.4255 0.253893 6.37215 0.630191 7.13984 0.815296C7.63907 0.906631 10.399 1.34869 11.2938 1.48874C12.1251 1.62148 15.5349 2.21576 16.3473 2.40208C18.0617 2.77473 19.8219 3.28742 21.5374 3.70999C22.2145 3.89632 25.4041 4.90222 25.8339 5.05566C25.9869 5.11289 26.2012 5.12994 26.2754 5.298C26.4155 5.6475 26.0376 5.94587 25.6702 5.89594C25.3346 5.85088 21.9872 5.24807 21.5834 5.1543C20.0939 4.80723 18.4914 4.51374 16.8831 4.26409C15.277 4.01201 11.063 3.42747 10.5026 3.31178C9.90326 3.19121 7.71324 2.944 7.23874 3.0536C6.83017 3.14859 6.2391 3.52002 6.12842 3.92067C5.99538 4.40292 5.76107 5.19449 5.65274 5.52816C4.8415 8.23532 3.80183 10.5698 3.6676 13.6496C3.62168 13.9297 3.52748 15.6103 4.26338 16.0012C5.00869 16.397 6.69124 16.4554 6.79367 16.4615C7.24698 16.5005 12.7291 16.9876 13.5556 17.1106C14.6754 17.2835 18.648 17.8997 19.5052 18.1336C20.2293 18.2724 23.207 18.9726 23.9735 19.3014C24.6976 16.2667 25.0579 13.0444 26.007 10.1497C25.3535 10.7452 24.5634 11.1653 23.7698 11.6987C22.8514 12.3125 21.2678 13.0444 21.0406 13.1394C20.6732 13.2721 19.6147 13.691 18.5032 13.9102C17.2846 14.1562 16.0153 14.1891 15.8516 14.1648C14.7684 14.1185 13.8206 13.9772 12.9198 13.4195C11.9261 12.813 10.8888 11.784 10.1211 10.6648C9.30984 9.49695 8.40557 7.81762 8.08884 6.5097Z" fill="#020203"/>
</g>
<path fill-rule="evenodd" clip-rule="evenodd" d="M10.1949 20.2836C10.3904 20.3202 10.6788 20.6733 10.5599 21.197C10.4057 21.8802 9.49906 22.4964 8.57007 22.7253C7.65403 22.9603 6.96876 22.7631 6.51074 22.3673C6.62495 21.857 6.92873 21.3833 7.69406 20.9498C8.22861 20.6721 9.13523 20.0827 10.1949 20.2836Z" fill="#020203"/>
<path fill-rule="evenodd" clip-rule="evenodd" d="M10.5875 45.2949C10.4745 45.5908 10.113 45.4362 10.0542 45.3728C9.33122 44.6617 9.29118 42.6109 9.21583 41.0753C8.98741 36.5414 9.94348 28.0911 10.8972 24.2612C11.0503 23.7509 11.2292 21.7915 11.2339 21.5516C11.241 21.2349 11.2775 20.8903 11.4294 20.7113C11.8497 20.2388 14.3671 20.475 14.4436 21.1485C14.559 21.8962 13.9091 23.472 13.7183 24.3817C13.0695 27.4993 10.7017 38.3912 10.5875 45.2949Z" fill="#020203"/>
<path fill-rule="evenodd" clip-rule="evenodd" d="M15.7409 21.0662C18.2559 19.7254 17.493 24.3019 17.6472 24.8547C16.6158 24.6574 16.0059 24.5393 15.4725 23.274C15.0922 22.4082 15.0522 21.423 15.7409 21.0662Z" fill="#020203"/>
<path fill-rule="evenodd" clip-rule="evenodd" d="M7.6804 34.1181C6.23099 33.4861 2.22773 31.7885 2.75875 29.2238C4.32355 28.8706 5.96371 29.7 7.26006 31.6704C7.83229 29.5392 6.30634 27.8842 4.59083 27.3338C3.75132 27.0525 2.34076 26.6603 1.4259 26.8199C-1.5106 27.4105 0.739462 33.0915 2.37844 34.3142C3.21677 34.945 4.59083 35.5393 5.886 35.303C6.72786 35.1423 8.51873 34.4737 7.6804 34.1181Z" fill="#020203"/>
<path fill-rule="evenodd" clip-rule="evenodd" d="M95.7271 21.7513C95.7224 21.7672 94.2636 28.3859 94.2553 28.4236C93.6725 30.9652 94.0281 31.518 94.6003 31.7786C94.9159 31.9296 95.0371 32.1087 95.0218 32.2938C95.0124 32.4289 94.897 32.6396 94.3872 32.6981V32.7078C94.3507 32.7078 94.2506 32.7176 94.1105 32.7139C94.1046 32.7139 94.1023 32.7176 94.0999 32.7176L94.0964 32.7139C93.4394 32.7103 91.8993 32.5117 91.2281 30.707C90.1284 32.2073 88.5471 33.0975 86.7127 32.5617C83.8339 31.7202 84.6086 28.3152 84.6298 28.2446C84.6298 28.2446 86.0828 21.7757 86.0887 21.7513C86.4007 20.363 86.7304 20.3618 87.8842 20.3618C89.0546 20.3618 89.4196 20.5457 89.1488 21.7513C89.1465 21.7757 87.7218 28.2032 87.7218 28.2032C87.3014 30.12 87.7865 30.6047 88.2716 30.7277C89.4361 31.0333 90.5276 29.7364 91.1398 28.6489C91.1398 28.6489 92.6517 21.822 92.667 21.7513C92.9766 20.363 93.4358 20.3618 94.4814 20.3618C95.6152 20.3618 95.9967 20.5457 95.7271 21.7513Z" fill="#020203"/>
<path fill-rule="evenodd" clip-rule="evenodd" d="M124.562 24.8231C124.562 24.8231 123.209 30.8573 123.116 31.3066C122.852 32.4818 122.373 32.4818 121.294 32.4818C120.215 32.4818 119.816 32.265 120.034 31.2908L121.472 24.8633C121.895 22.9489 121.333 22.5495 120.725 22.4533C119.617 22.2742 118.82 23.5943 118.34 24.42C118.34 24.42 116.812 31.2762 116.807 31.2908C116.539 32.4818 116.138 32.4867 115.002 32.4867C113.864 32.4867 113.509 32.265 113.722 31.3005C113.725 31.2859 115.174 24.8633 115.174 24.8633C115.599 22.9489 115.035 22.5495 114.425 22.4533C113.32 22.2742 112.521 23.5943 112.039 24.42L110.496 31.2908C110.229 32.4818 109.824 32.4769 108.704 32.4769C107.541 32.4769 107.219 32.265 107.437 31.2908C107.441 31.2616 109.562 21.7969 109.57 21.7518C109.88 20.3635 110.28 20.3623 111.381 20.3623C112.555 20.3623 112.893 20.5498 112.654 21.6325C114.047 20.3635 115.348 20.2637 116.183 20.506C117.374 20.8531 117.937 21.6422 118.19 22.4496C119.283 20.9736 120.673 19.9556 122.481 20.506C125.518 21.434 124.566 24.8097 124.562 24.8231Z" fill="#020203"/>
<path fill-rule="evenodd" clip-rule="evenodd" d="M106.868 23.8539C106.503 26.32 105.693 26.1057 104.646 25.9461C103.599 25.7842 103.092 25.5248 103.536 24.5542C103.677 24.2449 104.203 23.2426 103.916 22.6569C103.722 22.2599 103.257 21.9043 102.384 21.9883C101.07 22.1162 100.219 23.7541 99.6798 25.8256C99.0558 28.2185 99.243 30.346 100.699 30.7674C101.679 31.0548 102.997 31.0901 104.647 29.5155C104.65 29.513 104.653 29.5069 104.657 29.5045C105.002 29.1599 105.216 28.8713 105.687 29.0661C106.126 29.25 106.206 29.9198 105.701 30.5372C104.046 32.4016 102.263 32.8108 100.466 32.6696C98.4423 32.5112 97.4427 31.5017 97.0059 30.8027C96.2759 29.6312 96.1487 28.0553 96.4866 26.4503C97.0612 23.7431 97.8536 22.0784 99.3254 21.103C100.407 20.3905 101.611 20.1117 103.007 20.2225C103.735 20.2785 104.832 20.4539 105.741 21.2345C106.79 22.1332 106.983 23.0697 106.868 23.8539Z" fill="#020203"/>
<path fill-rule="evenodd" clip-rule="evenodd" d="M95.7271 21.7513C95.7224 21.7672 94.2636 28.3859 94.2553 28.4236C93.6725 30.9652 94.0281 31.518 94.6003 31.7786C94.9159 31.9296 95.0383 32.1087 95.0218 32.2938C95.0006 32.5166 94.7251 32.7176 94.0999 32.7176C93.4735 32.7163 91.8993 32.5117 91.2281 30.707C90.1284 32.2073 88.5471 33.0975 86.7127 32.5617C83.8339 31.7202 84.6086 28.3152 84.6298 28.2446C84.6298 28.2446 86.0828 21.7757 86.0887 21.7513C86.4007 20.363 86.7304 20.3618 87.8842 20.3618C89.0546 20.3618 89.4196 20.5457 89.1488 21.7513C89.1465 21.7757 87.7218 28.2032 87.7218 28.2032C87.3014 30.12 87.7865 30.6047 88.2716 30.7277C89.4361 31.0333 90.5276 29.7364 91.1398 28.6489C91.1398 28.6489 92.6517 21.822 92.667 21.7513C92.9766 20.363 93.4358 20.3618 94.4814 20.3618C95.6152 20.3618 95.9967 20.5457 95.7271 21.7513Z" fill="#020203"/>
<path fill-rule="evenodd" clip-rule="evenodd" d="M126.262 29.592C125.428 29.592 124.75 30.2923 124.75 31.1545C124.75 32.0155 125.428 32.7181 126.262 32.7181C127.095 32.7181 127.775 32.0155 127.775 31.1545C127.775 30.2923 127.095 29.592 126.262 29.592Z" fill="#020203"/>
<path fill-rule="evenodd" clip-rule="evenodd" d="M67.2991 27.0649C66.7446 29.1522 65.7426 31.2054 64.0942 30.8864C64.0883 30.8851 64.0847 30.8827 64.0789 30.8803C64.0777 30.8839 64.0777 30.8839 64.0777 30.8864C62.3186 30.588 62.2774 28.217 62.9108 25.8276C63.4642 23.7416 64.4662 21.6884 66.1146 22.0086C66.1205 22.0086 66.124 22.0111 66.1311 22.0111V22.0086C67.889 22.3046 67.9326 24.6756 67.2991 27.0649ZM70.0131 22.0695C69.5786 21.3401 68.3953 20.4072 66.5043 20.2404C64.8642 20.0943 63.7009 20.3476 62.5564 21.1063C61.0823 22.0793 60.2911 23.7416 59.7177 26.4499C59.3786 28.0562 59.5069 29.6308 60.2357 30.8023C60.6714 31.5026 61.6734 32.5109 63.6962 32.668C65.4929 32.8105 66.5079 32.545 67.6512 31.7863C69.1265 30.8096 69.9177 29.1522 70.4911 26.4426C70.829 24.8351 70.7207 23.2544 70.0131 22.0695Z" fill="#020203"/>
<path fill-rule="evenodd" clip-rule="evenodd" d="M80.1743 26.4404C79.4879 29.3412 78.5483 30.9438 76.7574 30.9584C75.6777 30.973 74.9289 29.961 74.6686 29.4581C74.9006 28.4376 75.1337 27.4134 75.3527 26.4404C75.6801 25.018 76.5349 21.9662 78.4564 21.9662H78.4658C80.378 21.9723 80.7901 23.8465 80.1743 26.4404ZM79.3501 20.187C78.0855 20.187 76.788 21.1795 76.4018 21.8176C76.6868 20.545 76.2099 20.3624 75.149 20.3624C74.1247 20.3624 73.6431 20.3636 73.3417 21.7519C73.3382 21.7567 69.9907 36.7003 69.9872 36.7113C69.7658 37.6806 70.1214 37.8974 71.2482 37.8974C72.3903 37.8974 72.7577 37.8913 73.0285 36.7064C73.3228 35.3997 73.7373 33.5706 74.2883 31.135C75.328 32.589 77.2778 32.7023 77.8159 32.6986C80.836 32.6913 82.3525 30.4116 83.2533 26.416C84.4601 21.0906 81.1669 20.187 79.3501 20.187Z" fill="#020203"/>
<path fill-rule="evenodd" clip-rule="evenodd" d="M138.452 26.4404C137.763 29.3412 136.827 30.9438 135.031 30.9584C133.955 30.973 133.206 29.961 132.945 29.4581C133.178 28.4376 133.41 27.4134 133.63 26.4404C133.958 25.018 134.812 21.9662 136.733 21.9662H136.742C138.653 21.9723 139.064 23.8465 138.452 26.4404ZM137.628 20.187C136.274 20.187 135.044 21.1101 134.665 21.7519C134.948 20.5499 134.494 20.3624 133.324 20.3624C132.263 20.3624 131.859 20.3636 131.55 21.7519C131.543 21.7641 128.205 36.7113 128.205 36.7113C127.987 37.6843 128.339 37.8937 129.462 37.8937C130.588 37.8937 131.048 37.8937 131.302 36.6906C131.306 36.6881 132.07 33.3136 132.566 31.135C133.604 32.589 135.558 32.7023 136.09 32.6986C139.111 32.6913 140.63 30.4116 141.531 26.416C142.734 21.0906 139.442 20.187 137.628 20.187Z" fill="#020203"/>
<path fill-rule="evenodd" clip-rule="evenodd" d="M103.786 22.4493C103.785 22.4493 103.785 22.4505 103.785 22.4505C103.762 22.4249 103.743 22.3994 103.717 22.3738C103.739 22.4018 103.763 22.4237 103.786 22.4493Z" fill="#020203"/>
<path fill-rule="evenodd" clip-rule="evenodd" d="M43.3417 26.4404C42.6553 29.3412 41.718 30.9438 39.9248 30.9585C39.2914 30.9658 38.7721 30.6163 38.3965 30.2266C38.9263 27.8957 40.1179 22.7201 40.1179 22.7201C40.53 22.2622 41.0281 21.9626 41.6344 21.9663C43.5442 21.9724 43.9551 23.8441 43.3417 26.4404ZM35.3458 30.1145C34.8348 30.6321 34.2261 30.9889 33.5384 30.9889C31.9018 30.9889 31.4956 29.038 32.109 26.4429C32.7955 23.547 34.1107 21.9115 35.5283 21.9285C36.3113 21.9383 36.7764 22.2123 37.013 22.7274L35.3458 30.1145ZM42.5199 20.1871C41.811 20.1871 41.0963 20.4988 40.5335 20.8836L41.061 18.5296C41.333 17.324 40.8456 17.1438 39.7764 17.1438C38.6956 17.1438 38.2658 17.1584 37.962 18.5223L37.4287 20.8995C36.5809 20.2199 35.2069 20.1737 34.7912 20.1737C31.7711 20.1785 29.9273 22.4741 29.0301 26.466C27.9492 31.2714 30.828 32.6816 32.6318 32.6914C33.5632 32.695 34.3662 32.309 34.9502 31.8511C34.9502 31.8511 34.3226 35.0856 33.8328 36.0659C33.5231 36.687 32.9403 36.911 32.5953 37.0681C32.1126 37.2861 32.0584 37.733 32.2762 37.8877C32.5729 38.0972 33.0757 38.0838 33.542 38.0838C35.6319 38.0838 36.774 36.8879 37.3144 34.775C37.3144 34.775 37.9138 32.365 38.0503 31.7598C39.1159 32.6171 40.5394 32.6987 40.981 32.6987C44.0046 32.6914 45.5211 30.4117 46.4219 26.4161C47.6252 21.0907 44.3355 20.1871 42.5199 20.1871Z" fill="#020203"/>
<path fill-rule="evenodd" clip-rule="evenodd" d="M57.7002 20.3635L53.7982 20.3623C52.2852 20.3623 50.3118 21.2062 49.55 23.7587C49.55 23.7612 49.5465 23.766 49.5465 23.7685C48.906 25.9605 48.1607 28.7091 47.8816 29.3813C47.526 30.2374 47.0221 31.292 46.464 31.6269L46.4652 31.6318C46.1779 31.7937 45.9047 31.8863 45.8341 32.0848C45.7411 32.3405 45.8824 32.6961 46.7913 32.6961C46.8019 32.6961 46.8113 32.6925 46.8231 32.6913C47.6697 32.7022 48.8412 32.5171 49.7055 31.6208C50.8217 30.4676 51.8708 26.6802 52.735 23.6905C53.0918 22.4691 53.8877 22.0075 54.8285 21.9917H55.8823C55.8823 21.9917 53.7699 31.2871 53.7699 31.2969C53.5557 32.265 53.8747 32.4818 55.084 32.4818C56.2944 32.4818 56.5781 32.4769 56.8501 31.3091L59.0177 21.7518C59.2886 20.545 58.7964 20.3635 57.7002 20.3635Z" fill="#020203"/>
<path fill-rule="evenodd" clip-rule="evenodd" d="M153.91 21.7513C153.91 21.7611 152.258 29.2943 151.97 30.4476C151.293 33.145 151.05 35.2761 148.594 37.0285C147.181 38.0357 144.63 38.468 142.269 37.5132C141.706 37.3001 141.665 36.8069 141.679 36.6669C141.718 36.3271 141.991 36.0251 142.492 36.0726C145.924 36.2516 147.785 35.6232 148.699 31.5704C148.004 32.2657 146.102 32.8223 144.92 32.4776C142.06 31.6398 142.832 28.2568 142.849 28.1886C142.849 28.1886 144.168 22.3212 144.295 21.7513C144.606 20.363 145.083 20.3618 146.167 20.3618C147.241 20.3618 147.625 20.5457 147.354 21.7513C147.354 21.7574 145.922 28.1459 145.922 28.1459C145.502 30.053 145.986 30.5414 146.467 30.657C147.72 30.9591 148.914 30.5657 149.224 29.1884C149.332 28.7293 150.851 21.7513 150.851 21.7513C151.161 20.363 151.653 20.3569 152.665 20.3569C153.762 20.3569 154.181 20.5457 153.91 21.7513Z" fill="#020203"/>
<path d="M91.4153 51.8321L90.3233 51.9721C90.3233 51.9721 90.2533 52.0701 90.2253 52.2381C90.1973 52.3921 90.2393 52.4901 90.2393 52.4901C90.2393 52.4901 90.7853 52.5881 91.9193 52.5881C93.0533 52.5881 93.6413 52.4901 93.6413 52.4901C93.6413 52.4901 93.6973 52.3921 93.7393 52.2381C93.7673 52.0701 93.7253 51.9721 93.7253 51.9721L92.6753 51.8321L93.9633 43.5581H98.0093L96.7073 51.8321L95.6153 51.9721C95.6153 51.9721 95.5453 52.0701 95.5173 52.2381C95.4893 52.3921 95.5173 52.4901 95.5173 52.4901C95.5173 52.4901 96.0773 52.5881 97.2113 52.5881C98.3453 52.5881 98.9333 52.4901 98.9333 52.4901C98.9333 52.4901 98.9893 52.3921 99.0173 52.2381C99.0593 52.0701 99.0173 51.9721 99.0173 51.9721L97.9673 51.8321L99.2693 43.4881L100.361 43.3481C100.361 43.3481 100.431 43.2501 100.459 43.0821C100.487 42.9281 100.459 42.8301 100.459 42.8301C100.459 42.8301 98.9753 42.7321 96.1193 42.7321C93.2493 42.7321 91.7653 42.8301 91.7653 42.8301C91.7653 42.8301 91.6953 42.9281 91.6673 43.0821C91.6393 43.2501 91.6673 43.3481 91.6673 43.3481L92.7173 43.4881L91.4153 51.8321ZM106.436 51.8741C105.988 51.8741 105.876 51.7061 105.974 51.0761L106.842 45.6021C106.842 45.6021 106.562 45.5321 106.254 45.5321C105.946 45.5321 105.638 45.6021 105.638 45.6021L105.554 46.1901C105.554 46.1901 105.358 45.4901 103.762 45.4901C102.068 45.4901 101.326 46.3021 101.102 47.7021L100.668 50.4181C100.444 51.8181 100.864 52.6301 102.32 52.6301C103.846 52.6301 104.826 51.7901 104.826 51.7901C104.812 52.3221 105.022 52.6301 105.834 52.6301C106.254 52.6301 106.548 52.5181 106.674 52.4761C106.674 52.4761 106.772 52.3221 106.8 52.1401C106.828 51.9721 106.786 51.8181 106.786 51.8181C106.758 51.8321 106.618 51.8741 106.436 51.8741ZM102.292 47.7021C102.446 46.7081 102.852 46.2321 103.888 46.2321C105.12 46.2321 105.456 46.7081 105.316 47.7021L104.77 51.1041C104.77 51.1041 104.154 51.8881 102.838 51.8881C101.928 51.8881 101.718 51.4121 101.872 50.4181L102.292 47.7021ZM109.301 46.2601L107.859 55.3181C107.859 55.3181 108.153 55.3881 108.461 55.3881C108.755 55.3881 109.063 55.3181 109.063 55.3181L109.595 51.9721C109.609 52.0421 109.973 52.6301 111.373 52.6301C113.095 52.6301 113.865 51.8181 114.089 50.4181L114.509 47.7021C114.747 46.3021 114.313 45.4901 112.857 45.4901C111.401 45.4901 110.505 46.2741 110.505 46.2741L110.603 45.6021C110.603 45.6021 110.267 45.5321 109.875 45.5321C108.937 45.5321 108.433 45.6301 108.433 45.6301C108.433 45.6301 108.363 45.7281 108.335 45.8681C108.321 46.0081 108.349 46.1061 108.349 46.1061L109.301 46.2601ZM112.885 50.4181C112.731 51.4121 112.325 51.8881 111.289 51.8881C110.043 51.8881 109.693 51.4121 109.847 50.4181L110.365 47.0441C110.365 47.0441 111.009 46.2321 112.325 46.2321C113.249 46.2321 113.473 46.7081 113.319 47.7021L112.885 50.4181ZM125.908 51.8881C125.46 51.8881 125.348 51.6501 125.418 51.1741L125.978 47.5621C126.202 46.2461 125.796 45.4901 124.41 45.4901C122.912 45.4901 121.946 46.2741 121.946 46.2741C121.778 45.7561 121.288 45.4901 120.434 45.4901C119.118 45.4901 118.264 46.2741 118.264 46.2741L118.362 45.6021C118.362 45.6021 118.026 45.5321 117.634 45.5321C116.696 45.5321 116.192 45.6301 116.192 45.6301C116.192 45.6301 116.122 45.7281 116.094 45.8681C116.08 46.0081 116.108 46.1061 116.108 46.1061L117.06 46.2601L116.066 52.5181C116.066 52.5181 116.346 52.5881 116.654 52.5881C116.948 52.5881 117.27 52.5181 117.27 52.5181L118.124 47.0441C118.124 47.0441 118.712 46.2321 119.916 46.2321C120.77 46.2321 120.966 46.6661 120.826 47.5621L120.042 52.5181C120.042 52.5181 120.322 52.5881 120.63 52.5881C120.924 52.5881 121.232 52.5181 121.232 52.5181L122.128 46.9321C122.226 46.8061 122.8 46.2321 123.878 46.2321C124.732 46.2321 124.928 46.6661 124.788 47.5621L124.228 51.1741C124.06 52.0981 124.354 52.6301 125.334 52.6301C125.74 52.6301 126.006 52.5321 126.146 52.4901C126.146 52.4901 126.23 52.3361 126.258 52.1681C126.286 51.9861 126.258 51.8321 126.258 51.8321C126.216 51.8461 126.076 51.8881 125.908 51.8881ZM127.693 52.5181C127.693 52.5181 127.973 52.5881 128.281 52.5881C128.575 52.5881 128.897 52.5181 128.897 52.5181L129.401 49.3121H132.425L132.145 51.1741C131.991 52.0981 132.285 52.6301 133.265 52.6301C133.657 52.6301 133.937 52.5321 134.063 52.4901C134.063 52.4901 134.147 52.3361 134.175 52.1681C134.203 51.9861 134.175 51.8321 134.175 51.8321C134.133 51.8461 134.007 51.8881 133.825 51.8881C133.377 51.8881 133.265 51.6501 133.349 51.1741L134.217 45.6021C134.217 45.6021 133.937 45.5321 133.629 45.5321C133.321 45.5321 133.013 45.6021 133.013 45.6021L132.551 48.5701H129.527L129.989 45.6021C129.989 45.6021 129.653 45.5321 129.261 45.5321C128.323 45.5321 127.819 45.6301 127.819 45.6301C127.819 45.6301 127.749 45.7281 127.721 45.8681C127.707 46.0081 127.735 46.1061 127.735 46.1061L128.687 46.2601L127.693 52.5181ZM135.805 50.4181C135.581 51.8181 136.211 52.6301 138.297 52.6301C139.865 52.6301 140.901 52.1121 140.901 52.1121C140.901 52.1121 141.013 51.9721 141.055 51.7481C141.097 51.5101 141.027 51.3701 141.041 51.3561C141.027 51.3701 139.963 51.8881 138.549 51.8881C137.191 51.8881 136.855 51.4121 137.009 50.4181L137.163 49.4101H139.291C140.635 49.4101 141.447 49.2981 141.447 49.2981L141.699 47.7021C141.923 46.3021 141.419 45.4901 139.347 45.4901C137.331 45.4901 136.463 46.3021 136.239 47.7021L135.805 50.4181ZM137.275 48.6681L137.429 47.7021C137.583 46.7081 138.031 46.2321 139.221 46.2321C140.411 46.2321 140.705 46.7081 140.565 47.7021L140.411 48.6681H137.275ZM144.205 46.2601L142.763 55.3181C142.763 55.3181 143.057 55.3881 143.365 55.3881C143.659 55.3881 143.967 55.3181 143.967 55.3181L144.499 51.9721C144.513 52.0421 144.877 52.6301 146.277 52.6301C147.999 52.6301 148.769 51.8181 148.993 50.4181L149.413 47.7021C149.651 46.3021 149.217 45.4901 147.761 45.4901C146.305 45.4901 145.409 46.2741 145.409 46.2741L145.507 45.6021C145.507 45.6021 145.171 45.5321 144.779 45.5321C143.841 45.5321 143.337 45.6301 143.337 45.6301C143.337 45.6301 143.267 45.7281 143.239 45.8681C143.225 46.0081 143.253 46.1061 143.253 46.1061L144.205 46.2601ZM147.789 50.4181C147.635 51.4121 147.229 51.8881 146.193 51.8881C144.947 51.8881 144.597 51.4121 144.751 50.4181L145.269 47.0441C145.269 47.0441 145.913 46.2321 147.229 46.2321C148.153 46.2321 148.377 46.7081 148.223 47.7021L147.789 50.4181Z" fill="black"/>
</svg>
