<svg version="1.1" xmlns="http://www.w3.org/2000/svg" xmlns:xlink="http://www.w3.org/1999/xlink">
	<symbol id="arrow-right" viewBox="0 0 10 20">
		<path fill-rule="evenodd" clip-rule="evenodd" d="M1 9L1.84422 8.15578L5.22113 11.2L8.64106 8.15577L9.48528 9L5.22113 12.8884L1 9Z"/>
	</symbol>
	<symbol id="clear" viewBox="0 0 16 16">
		<g clip-path="url(#clip0)">
			<path fill-rule="evenodd" clip-rule="evenodd" d="M8.00391 7.08325L5.85633 4.93567C5.60217 4.68152 5.1901 4.68152 4.93594 4.93567C4.68179 5.18983 4.68179 5.6019 4.93594 5.85606L7.08352 8.00364L4.93594 10.1512C4.68179 10.4054 4.68179 10.8174 4.93594 11.0716C5.1901 11.3258 5.60217 11.3258 5.85633 11.0716L8.00391 8.92402L10.1515 11.0716C10.4056 11.3258 10.8177 11.3258 11.0719 11.0716C11.326 10.8174 11.326 10.4054 11.0719 10.1512L8.92429 8.00364L11.0719 5.85606C11.326 5.6019 11.326 5.18983 11.0719 4.93567C10.8177 4.68152 10.4056 4.68152 10.1515 4.93567L8.00391 7.08325ZM3.09517 12.9124C0.384145 10.2014 0.384145 5.80592 3.09517 3.0949C5.80619 0.383874 10.2016 0.383874 12.9126 3.0949C15.6237 5.80592 15.6237 10.2014 12.9126 12.9124C10.2016 15.6234 5.80619 15.6234 3.09517 12.9124Z"/>
		</g>
		<defs>
			<clipPath id="clip0">
				<rect width="16" height="16" fill="white"/>
			</clipPath>
		</defs>
	</symbol>
	<symbol id="close" viewBox="0 0 20 21" xmlns="http://www.w3.org/2000/svg">
		<path fill-rule="evenodd" clip-rule="evenodd" d="M5.75744 5.09315L4.34323 6.50736L8.58569 10.7498L4.34305 14.9925L5.75727 16.4067L9.99991 12.164L14.2427 16.4069L15.6569 14.9926L11.4141 10.7498L15.6568 6.50719L14.2425 5.09297L9.99991 9.33561L5.75744 5.09315Z" fill-opacity="0.4"/>
	</symbol>
	<symbol id="print" viewBox="0 0 20 20" fill="none" xmlns="http://www.w3.org/2000/svg">
		<path d="M0.749512 9.10352C0.749512 8.41138 1.3073 7.85352 1.99588 7.85352H2.02095H2.04609H2.0713H2.09659H2.12195H2.14738H2.17288H2.19845H2.22409H2.2498H2.27558H2.30143H2.32734H2.35333H2.37938H2.40551H2.4317H2.45796H2.48428H2.51068H2.53714H2.56366H2.59025H2.61691H2.64364H2.67043H2.69728H2.7242H2.75118H2.77823H2.80534H2.83252H2.85976H2.88706H2.91442H2.94185H2.96934H2.99689H3.0245H3.05218H3.07991H3.10771H3.13557H3.16349H3.19146H3.2195H3.2476H3.27575H3.30397H3.33224H3.36057H3.38896H3.41741H3.44591H3.47448H3.50309H3.53177H3.5605H3.58929H3.61813H3.64703H3.67599H3.70499H3.73406H3.76318H3.79235H3.82158H3.85086H3.88019H3.90957H3.93901H3.9685H3.99805H4.02764H4.05729H4.08699H4.11673H4.14653H4.17638H4.20628H4.23623H4.26623H4.29628H4.32638H4.35653H4.38672H4.41696H4.44725H4.47759H4.50798H4.53841H4.56889H4.59942H4.62999H4.66061H4.69127H4.72198H4.75274H4.78354H4.81438H4.84527H4.8762H4.90718H4.93819H4.96926H5.00036H5.03151H5.0627H5.09393H5.1252H5.15652H5.18788H5.21927H5.25071H5.28219H5.31371H5.34526H5.37686H5.4085H5.44017H5.47188H5.50364H5.53543H5.56725H5.59912H5.63102H5.66296H5.69494H5.72695H5.759H5.79108H5.8232H5.85536H5.88755H5.91977H5.95203H5.98432H6.01665H6.04901H6.0814H6.11383H6.14629H6.17878H6.2113H6.24386H6.27645H6.30906H6.34171H6.37439H6.4071H6.43985H6.47262H6.50542H6.53825H6.5711H6.60399H6.63691H6.66985H6.70282H6.73582H6.76885H6.8019H6.83498H6.86809H6.90123H6.93438H6.96757H7.00078H7.03402H7.06728H7.10056H7.13387H7.1672H7.20056H7.23394H7.26734H7.30077H7.33422H7.36769H7.40118H7.4347H7.46823H7.50179H7.53537H7.56897H7.60258H7.63622H7.66988H7.70356H7.73726H7.77097H7.80471H7.83846H7.87223H7.90602H7.93983H7.97365H8.00749H8.04135H8.07522H8.10911H8.14302H8.17694H8.21088H8.24483H8.27879H8.31277H8.34677H8.38078H8.4148H8.44883H8.48288H8.51694H8.55101H8.5851H8.6192H8.65331H8.68743H8.72156H8.7557H8.78985H8.82401H8.85818H8.89237H8.92656H8.96076H8.99497H9.02919H9.06341H9.09764H9.13189H9.16613H9.20039H9.23465H9.26892H9.3032H9.33748H9.37176H9.40606H9.44035H9.47466H9.50896H9.54327H9.57759H9.61191H9.64623H9.68055H9.71488H9.74921H9.78355H9.81788H9.85222H9.88655H9.92089H9.95523H9.98957H10.0239H10.0583H10.0926H10.1269H10.1613H10.1956H10.23H10.2643H10.2986H10.333H10.3673H10.4016H10.4359H10.4702H10.5046H10.5389H10.5732H10.6075H10.6418H10.6761H10.7104H10.7446H10.7789H10.8132H10.8475H10.8817H10.916H10.9502H10.9844H11.0187H11.0529H11.0871H11.1213H11.1555H11.1897H11.2239H11.258H11.2922H11.3263H11.3605H11.3946H11.4287H11.4628H11.4969H11.531H11.565H11.5991H11.6331H11.6671H11.7011H11.7351H11.7691H11.8031H11.8371H11.871H11.9049H11.9388H11.9727H12.0066H12.0405H12.0743H12.1081H12.1419H12.1757H12.2095H12.2433H12.277H12.3107H12.3444H12.3781H12.4118H12.4454H12.479H12.5126H12.5462H12.5798H12.6133H12.6469H12.6804H12.7138H12.7473H12.7807H12.8141H12.8475H12.8809H12.9142H12.9475H12.9808H13.0141H13.0473H13.0805H13.1137H13.1469H13.18H13.2132H13.2462H13.2793H13.3123H13.3453H13.3783H13.4113H13.4442H13.4771H13.51H13.5428H13.5756H13.6084H13.6411H13.6738H13.7065H13.7392H13.7718H13.8044H13.837H13.8695H13.902H13.9345H13.9669H13.9993H14.0317H14.064H14.0963H14.1286H14.1608H14.193H14.2252H14.2573H14.2894H14.3214H14.3535H14.3855H14.4174H14.4493H14.4812H14.513H14.5448H14.5766H14.6083H14.64H14.6716H14.7032H14.7348H14.7663H14.7978H14.8293H14.8607H14.892H14.9234H14.9547H14.9859H15.0171H15.0483H15.0794H15.1104H15.1415H15.1725H15.2034H15.2343H15.2652H15.296H15.3267H15.3575H15.3881H15.4188H15.4493H15.4799H15.5104H15.5408H15.5712H15.6016H15.6319H15.6621H15.6923H15.7225H15.7526H15.7827H15.8127H15.8426H15.8725H15.9024H15.9322H15.962H15.9917H16.0213H16.051H16.0805H16.11H16.1395H16.1689H16.1982H16.2275H16.2567H16.2859H16.3151H16.3441H16.3732H16.4021H16.431H16.4599H16.4887H16.5174H16.5461H16.5748H16.6033H16.6319H16.6603H16.6887H16.7171H16.7454H16.7736H16.8018H16.8299H16.8579H16.8859H16.9138H16.9417H16.9695H16.9973H17.025H17.0526H17.0802H17.1077H17.1351H17.1625H17.1898H17.2171H17.2443H17.2714H17.2984H17.3254H17.3524H17.3792H17.4061H17.4328H17.4595H17.4861H17.5126H17.5391H17.5655H17.5918H17.6181H17.6443H17.6705H17.6965H17.7225H17.7485H17.7743H17.8001H17.8259H17.8515H17.8771H17.9026H17.9281H17.9534H17.9788H18.004C18.6928 7.85352 19.2507 8.41157 19.2507 9.10352V16.1035C19.2507 16.7939 18.6911 17.3535 18.0007 17.3535H1.99951C1.30916 17.3535 0.749512 16.7939 0.749512 16.1035V9.10352Z" stroke="#5B8D31" stroke-width="1.5"/>
		<rect x="4.49951" y="0.5" width="11" height="10" fill="white" stroke="#5B8D31"/>
		<path d="M4.49951 16C4.49951 15.1716 5.17108 14.5 5.99951 14.5H13.9995C14.8279 14.5 15.4995 15.1716 15.4995 16V19.5H4.49951V16Z" fill="white" stroke="#5B8D31"/>
		<rect x="2.99951" y="10" width="14" height="1" rx="0.5" fill="#5B8D31"/>
		<rect x="6.99951" y="6" width="6" height="1" rx="0.5" fill="#5B8D31"/>
		<rect x="6.99951" y="3" width="6" height="1" rx="0.5" fill="#5B8D31"/>
	</symbol>
</svg>